<?xml version="1.0" encoding="UTF-8"?>
<svg
  xmlns="http://www.w3.org/2000/svg"
  viewBox="0 0 960 960"
  width="192" height="192"
  preserveAspectRatio="xMidYMid meet"
>
  <g fill="none" stroke="#000" stroke-width="15" stroke-linecap="round" stroke-linejoin="round">
    <path d="M402.7,182.7c-27.3-10.5-61.1-7-88.9,2.1c-27.8,9.1-53.7,29.5-69.5,54.1c-15.6,24.3-22.5,52.9-29.2,81
      c-10.7,44.9-10.6,86.9-37.7,134.8c66.7,15.7,137,11.4,199.4-16.9c28.7-13.1,57.2-33.8,76.4-58.7c32.7-42.5,44.7-110,1.7-163.9"/>
    <path d="M255.5,408.3c89.8-67.2,167.9-147,233-237.7"/>
    <path d="M209.1,643c-16.4,27.5-14,64.5,4.2,90.8s51.1,41.2,83,39.6c30.5-1.6,60.2-18.1,76-44.2
      c15.9-26,16.7-61,0.7-86.9C341.3,590.9,240.2,590.8,209.1,643z"/>
    <path d="M596.1,650.3c-15.2,38.5,0,86.3,33.8,110.2c33.8,23.9,82.7,23,116.6-0.9c30.9-21.8,44.5-62.9,34.7-99.4
      C759.7,579.4,626.7,573,596.1,650.3z"/>
    <path d="M260.9,674.9c-5,12.9-1.3,28.7,8.9,38.1c10.2,9.4,26.2,11.8,38.7,5.8c12.5-6,20.7-20,19.7-33.8
      c-0.6-8.7-4.6-17.1-11.3-22.6C298.6,647.3,269.8,651.7,260.9,674.9z"/>
    <path d="M665.8,652.2c-10.3,7.3-16.3,20.2-15.6,32.8c0.5,10.3,5.3,20.3,13.1,27.1s18.5,10.1,28.7,8.8
      c15-1.9,28-14.3,30.7-29.1C728.5,660.6,693.2,632.9,665.8,652.2z"/>
    <path d="M590.3,686c-48,0.4-157.5,0.8-205.5,1.2"/>
    <path d="M105.6,526.8c-1.5,70.4,2.4,129.9,5.5,149.8c1.4,9,9.2,15.5,18.2,15.2c20.5-0.7,47.8-2,68.8-2.4"/>
    <path d="M105.3,563.4c27.1,0.5,31.7,2.9,36.1,8.5c7.6,9.5,6.8,22.7,6.8,34.9c0,9.1,0.1,35.2-3.4,41.9
      c-4.5,8.7-14,10.4-23.6,12.1c-2.3,0.4-7.2,0.7-11.8,0.8"/>
    <path d="M856.7,511.8c-5.1,0.6-10.2,1.8-15,3.8c-12.6,5.1-23.3,15.8-26,29.1c-3.5,16.7,6.7,34.3,21.4,43
      c6.3,3.7,13.2,6,20.3,7.2"/>
    <path d="M807.3,475.9c-49.3-0.6-119.6,0.6-169,0c-1.5-41.2-1.8-88.9-1.3-131.4c28.1-0.8,52-2.3,90.7,0.2
      C762.1,347,808.8,445.7,807.3,475.9z"/>
    <path d="M744.9,475.8c9.3-11.9,19.7-27.5,26.2-35.7"/>
    <path d="M105.6,526.8c308-4,324.1-4.2,478.8-5.5c0.4-67.9-0.4-157.6-0.8-225.5l38.4-1.2c51.5-1.1,80.6-0.8,111.9-0.3
      c63.9,1.2,120.9,145,122,181.7c2,67.4,2,145-0.2,185.8c-0.8,13.9-9.8,18.2-19.2,19.4c-17.7,2.2-33.9,0.9-52.1,2.4"/>
    <path d="M516.3,197c9.3,0,14.6,0,24.1,0c21.2,0,43.2,15.2,43.1,46.7c-0.1,19.2,0.1,31.1,0.1,52.2"/>
    <path d="M105.6,526.8c-1.5-84.5-3-193.4-3-284.6c0-27.1,10.1-40,40.8-41c22.9-0.7,53.8-1.3,78.6-1.8"/>
  </g>
</svg>
