<?xml version="1.0" ?><svg viewBox="0 0 22.839 22.84" width="192" height="192" xmlns="http://www.w3.org/2000/svg"><g data-name="Layer 2" id="Layer_2"><g data-name="Layer 1" id="Layer_1-2"><path d="M22.758,6.078,17.724.122A.35.35,0,0,0,17.459,0H.346A.346.346,0,0,0,0,.346v16.19a.352.352,0,0,0,.081.224l5.034,5.957a.344.344,0,0,0,.264.123H22.493a.346.346,0,0,0,.346-.346V6.3A.354.354,0,0,0,22.758,6.078ZM17.3.692l1.932,2.286H3.023L1.092.692ZM5.033,21.548.692,16.41V1.292L5.033,6.43ZM3.608,3.671H19.816l1.932,2.286H5.54ZM22.147,22.147H5.725V6.649H22.147ZM7.93,16.51l.68-1.02-.574-.383,1.856-.917-.133,2.066-.574-.382-.68,1.019a1.309,1.309,0,0,0,1.084,2.024h2.862a.346.346,0,1,1,0,.692H9.589A2,2,0,0,1,7.93,16.51Zm2.554-3.833,1.793-2.689a2.007,2.007,0,0,1,3.318,0l1.625,2.438.574-.382.133,2.066-1.856-.918.574-.382-1.626-2.438a1.3,1.3,0,0,0-2.166,0L11.06,13.061A.346.346,0,0,1,10.484,12.677Zm8.883,4.216-.848-1.271a.347.347,0,0,1,.576-.385l.847,1.272a2,2,0,0,1-1.658,3.1h-2.56v.69l-1.793-1.036,1.793-1.035v.689h2.56A1.309,1.309,0,0,0,19.367,16.893Z" data-name="cardboard recycling" id="cardboard_recycling"/></g></g></svg>
