<?xml version="1.0"?>
<svg
    xmlns="http://www.w3.org/2000/svg"
    viewBox="0 0 960 960"
    preserveAspectRatio="xMidYMid slice"
    width="960"
    height="960"
    style="display:block; overflow:hidden;"
>
  <!-- Все линии с чёрным контуром, без отступов -->
  <g fill="none" stroke="#000" stroke-width="15" stroke-linecap="round" stroke-linejoin="round">
    <path d="M402.7,182.7c-27.3-10.5-61.1-7-88.9,2.1c-27.8,9.1-53.7,29.5-69.5,54.1c-15.6,24.3-22.5,52.9-29.2,81
      c-10.7,44.9-10.6,86.9-37.7,134.8c66.7,15.7,137,11.4,199.4-16.9c28.7-13.1,57.2-33.8,76.4-58.7c32.7-42.5,44.7-110,1.7-163.9"/>
    <path d="M255.5,408.3c89.8-67.2,167.9-147,233-237.7"/>
    <path d="M209.1,643c-16.4,27.5-14,64.5,4.2,90.8s51.1,41.2,83,39.6c30.5-1.6,60.2-18.1,76-44.2
      c15.9-26,16.7-61,0.7-86.9C341.3,590.9,240.2,590.8,209.1,643z"/>
    <path d="M596.1,650.3c-15.2,38.5,0,86.3,33.8,110.2c33.8,23.9,82.7,23,116.6-0.9c30.9-21.8,44.5-62.9,34.7-99.4
      C759.7,579.4,626.7,573,596.1,650.3z"/>
    <!-- …другие <path> останутся такими же, но без классов и со stroke="#000"… -->
  </g>
</svg>
