<?xml version="1.0" encoding="utf-8"?>
<svg viewBox="0 0 22.617 22.592" xmlns="http://www.w3.org/2000/svg">
  <g data-name="Layer 2" id="Layer_2" style="visibility: hidden;" transform="matrix(0.904417, 0, 0, 0.904417, 1.081254, 1.079668)">
    <g data-name="Layer 1" id="Layer_1-2">
      <path d="M22.191,16.778a.993.993,0,0,0-.955-.128.989.989,0,0,0-.427-1.089c-.464-.356-1.17-.052-2.34.451a21.9,21.9,0,0,1-2.741,1.016,1.659,1.659,0,0,0-1.365-.708,19.22,19.22,0,0,1-2.711-.094V14.405h5.14A4.92,4.92,0,0,0,21.7,9.489a.343.343,0,0,0-.343-.343H15.878a4.908,4.908,0,0,0-4.226,2.423V5.259h5.14A4.92,4.92,0,0,0,21.7.343.344.344,0,0,0,21.361,0H15.878a4.92,4.92,0,0,0-4.912,4.916V7A4.908,4.908,0,0,0,6.74,4.573H1.257a.344.344,0,0,0-.343.343A4.919,4.919,0,0,0,5.826,9.832h5.14V16.1C8.655,15.182,9.5,14.788,3.254,14.72L.4,14.266a.347.347,0,0,0-.4.339v6.169a.342.342,0,0,0,.289.338l2.856.454c4.27,1.512,13.365,1.885,18.636-2.656C22.144,18.7,23.2,17.575,22.191,16.778ZM17.7,2.287c-1.809-.08-4.542.039-5.732,1.02a4.23,4.23,0,0,1,3.9-2.621H21a4.232,4.232,0,0,1-4.212,3.887H11.726c.351-.825,1.931-1.6,4.152-1.6H17.7A.343.343,0,0,0,17.7,2.287ZM5.826,9.146A4.234,4.234,0,0,1,1.613,5.259H6.74a4.231,4.231,0,0,1,3.9,2.622C9.458,6.9,6.719,6.779,4.911,6.86a.343.343,0,0,0,0,.685H6.738c2.222,0,3.8.776,4.152,1.6ZM2.882,20.829l-2.2-.348V15.007l2.2.348Zm13.066-3.151c1.553-.347,3.252-1.454,4.444-1.573,1.115.967-3.074,2.01-4.484,2.43A1.879,1.879,0,0,0,15.948,17.678Zm-.07-7.846H21a4.233,4.233,0,0,1-4.212,3.887H11.726c.351-.825,1.931-1.6,4.152-1.6H17.7a.343.343,0,0,0,0-.686c-1.808-.08-4.542.04-5.732,1.021A4.23,4.23,0,0,1,15.878,9.832Zm5.5,8.527c-7.008,5.56-16.238,3.1-17.806,2.621V15.406c4.68.021,5.458.479,6.146.883.707.414,1.316.772,4.676.717a.927.927,0,0,1,.9,1.159c0,.1-.053.437-.651.658-.641.251-2.053.465-5.145.064a.343.343,0,0,0-.088.681c3.546.807,8.42-.67,10.833-1.809.7-.3,1.364-.579,1.513-.455C22.243,17.674,21.6,18.173,21.373,18.359ZM1.783,16.19a.343.343,0,0,1,0,.686A.343.343,0,0,1,1.783,16.19Z" id="ecology"/>
    </g>
  </g>
  <g fill="none" stroke="#000" stroke-width="15" stroke-linecap="round" stroke-linejoin="round" transform="matrix(0.028963, 0, 0, 0.033084, -2.593741, -4.395433)" style="">
    <path d="M402.7,182.7c-27.3-10.5-61.1-7-88.9,2.1c-27.8,9.1-53.7,29.5-69.5,54.1c-15.6,24.3-22.5,52.9-29.2,81 c-10.7,44.9-10.6,86.9-37.7,134.8c66.7,15.7,137,11.4,199.4-16.9c28.7-13.1,57.2-33.8,76.4-58.7c32.7-42.5,44.7-110,1.7-163.9"/>
    <path d="M255.5,408.3c89.8-67.2,167.9-147,233-237.7"/>
    <path d="M209.1,643c-16.4,27.5-14,64.5,4.2,90.8s51.1,41.2,83,39.6c30.5-1.6,60.2-18.1,76-44.2 c15.9-26,16.7-61,0.7-86.9C341.3,590.9,240.2,590.8,209.1,643z"/>
    <path d="M596.1,650.3c-15.2,38.5,0,86.3,33.8,110.2c33.8,23.9,82.7,23,116.6-0.9c30.9-21.8,44.5-62.9,34.7-99.4 C759.7,579.4,626.7,573,596.1,650.3z"/>
    <path d="M260.9,674.9c-5,12.9-1.3,28.7,8.9,38.1c10.2,9.4,26.2,11.8,38.7,5.8c12.5-6,20.7-20,19.7-33.8 c-0.6-8.7-4.6-17.1-11.3-22.6C298.6,647.3,269.8,651.7,260.9,674.9z"/>
    <path d="M665.8,652.2c-10.3,7.3-16.3,20.2-15.6,32.8c0.5,10.3,5.3,20.3,13.1,27.1s18.5,10.1,28.7,8.8 c15-1.9,28-14.3,30.7-29.1C728.5,660.6,693.2,632.9,665.8,652.2z"/>
    <path d="M590.3,686c-48,0.4-157.5,0.8-205.5,1.2"/>
    <path d="M105.6,526.8c-1.5,70.4,2.4,129.9,5.5,149.8c1.4,9,9.2,15.5,18.2,15.2c20.5-0.7,47.8-2,68.8-2.4"/>
    <path d="M105.3,563.4c27.1,0.5,31.7,2.9,36.1,8.5c7.6,9.5,6.8,22.7,6.8,34.9c0,9.1,0.1,35.2-3.4,41.9 c-4.5,8.7-14,10.4-23.6,12.1c-2.3,0.4-7.2,0.7-11.8,0.8"/>
    <path d="M856.7,511.8c-5.1,0.6-10.2,1.8-15,3.8c-12.6,5.1-23.3,15.8-26,29.1c-3.5,16.7,6.7,34.3,21.4,43 c6.3,3.7,13.2,6,20.3,7.2"/>
    <path d="M807.3,475.9c-49.3-0.6-119.6,0.6-169,0c-1.5-41.2-1.8-88.9-1.3-131.4c28.1-0.8,52-2.3,90.7,0.2 C762.1,347,808.8,445.7,807.3,475.9z"/>
    <path d="M744.9,475.8c9.3-11.9,19.7-27.5,26.2-35.7"/>
    <path d="M105.6,526.8c308-4,324.1-4.2,478.8-5.5c0.4-67.9-0.4-157.6-0.8-225.5l38.4-1.2c51.5-1.1,80.6-0.8,111.9-0.3 c63.9,1.2,120.9,145,122,181.7c2,67.4,2,145-0.2,185.8c-0.8,13.9-9.8,18.2-19.2,19.4c-17.7,2.2-33.9,0.9-52.1,2.4"/>
    <path d="M516.3,197c9.3,0,14.6,0,24.1,0c21.2,0,43.2,15.2,43.1,46.7c-0.1,19.2,0.1,31.1,0.1,52.2"/>
    <path d="M105.6,526.8c-1.5-84.5-3-193.4-3-284.6c0-27.1,10.1-40,40.8-41c22.9-0.7,53.8-1.3,78.6-1.8"/>
  </g>
  <g data-name="Layer 2" id="group-1" transform="matrix(0.867447, 0, 0, 0.867447, 1.402688, 1.389753)" style="visibility: hidden;">
    <g data-name="Layer 1" id="group-2">
      <path d="M22.758,6.078,17.724.122A.35.35,0,0,0,17.459,0H.346A.346.346,0,0,0,0,.346v16.19a.352.352,0,0,0,.081.224l5.034,5.957a.344.344,0,0,0,.264.123H22.493a.346.346,0,0,0,.346-.346V6.3A.354.354,0,0,0,22.758,6.078ZM17.3.692l1.932,2.286H3.023L1.092.692ZM5.033,21.548.692,16.41V1.292L5.033,6.43ZM3.608,3.671H19.816l1.932,2.286H5.54ZM22.147,22.147H5.725V6.649H22.147ZM7.93,16.51l.68-1.02-.574-.383,1.856-.917-.133,2.066-.574-.382-.68,1.019a1.309,1.309,0,0,0,1.084,2.024h2.862a.346.346,0,1,1,0,.692H9.589A2,2,0,0,1,7.93,16.51Zm2.554-3.833,1.793-2.689a2.007,2.007,0,0,1,3.318,0l1.625,2.438.574-.382.133,2.066-1.856-.918.574-.382-1.626-2.438a1.3,1.3,0,0,0-2.166,0L11.06,13.061A.346.346,0,0,1,10.484,12.677Zm8.883,4.216-.848-1.271a.347.347,0,0,1,.576-.385l.847,1.272a2,2,0,0,1-1.658,3.1h-2.56v.69l-1.793-1.036,1.793-1.035v.689h2.56A1.309,1.309,0,0,0,19.367,16.893Z" data-name="cardboard recycling" id="cardboard_recycling"/>
    </g>
  </g>
</svg>
